STARTFONT 2.1
FONT -Adobe-Utopia-Regular-I-Normal--25-180-100-100-P-134-ISO8859-2
SIZE 18 100 100
FONTBOUNDINGBOX 34 29 -4 -6
STARTPROPERTIES 29
FOUNDRY "Adobe"
FAMILY_NAME "Utopia"
WEIGHT_NAME "Regular"
SLANT "I"
SETWIDTH_NAME "Normal"
ADD_STYLE_NAME ""
PIXEL_SIZE 25
POINT_SIZE 180
RESOLUTION_X 100
RESOLUTION_Y 100
SPACING "P"
AVERAGE_WIDTH 134
CHARSET_REGISTRY "ISO8859"
CHARSET_ENCODING "2"
CAP_HEIGHT 17
X_HEIGHT 12
RELATIVE_SETWIDTH 50
RELATIVE_WEIGHT 50
WEIGHT 130
FACE_NAME "Utopia Italic"
COPYRIGHT "Copyright (c) 1989, 1991 Adobe Systems Incorporated.  All Rights Reserved., Copyright 1996 Cub Soft"
NOTICE "Utopia is a registered trademark of Adobe Systems Incorporated."
DESTINATION 0
FONT_ASCENT 23
FONT_DESCENT 6
DEFAULT_CHAR 32
_ADOBE_PSFONT "Utopia-Italic"
_ADOBE_XFONT "-Adobe-Utopia-Regular-I-Normal--25-180-100-100-P-134-ISO8859-2"
_DEC_DEVICE_FONTNAMES "PS=Utopia-Italic"
ENDPROPERTIES
CHARS 191
STARTCHAR space
ENCODING 32
SWIDTH 225 0
DWIDTH 6 0
BBX 0 0 0 0
BITMAP
ENDCHAR
STARTCHAR exclam
ENCODING 33
SWIDTH 240 0
DWIDTH 6 0
BBX 6 18 2 0
BITMAP
0c
1c
1c
18
18
18
10
30
30
20
20
20
00
00
00
e0
e0
c0
ENDCHAR
STARTCHAR quotedbl
ENCODING 34
SWIDTH 402 0
DWIDTH 10 0
BBX 7 7 5 12
BITMAP
66
ee
cc
cc
cc
88
88
ENDCHAR
STARTCHAR numbersign
ENCODING 35
SWIDTH 530 0
DWIDTH 13 0
BBX 13 16 2 0
BITMAP
0310
0230
0620
0420
0460
3ff8
08c0
0880
1880
ffe0
3100
2100
2300
6200
4200
4600
ENDCHAR
STARTCHAR dollar
ENCODING 36
SWIDTH 530 0
DWIDTH 13 0
BBX 14 22 1 -3
BITMAP
0040
0040
03e0
0e58
08cc
188c
1880
1880
0f00
0f80
03c0
01e0
0370
0230
0230
c230
6620
74c0
0f80
0400
0800
0800
ENDCHAR
STARTCHAR percent
ENCODING 37
SWIDTH 826 0
DWIDTH 21 0
BBX 18 18 3 0
BITMAP
000080
0e0180
31ff00
618200
618400
c18800
c39800
c33000
466000
3c4700
009880
0130c0
0230c0
0660c0
0c61c0
186180
102300
201e00
ENDCHAR
STARTCHAR ampersand
ENCODING 38
SWIDTH 725 0
DWIDTH 18 0
BBX 16 17 3 0
BITMAP
0380
0ce0
0860
1860
1840
1880
0d06
0e07
1e06
670c
4388
c3d0
c1f0
c0e0
e070
61bc
3e0e
ENDCHAR
STARTCHAR apostrophe
ENCODING 39
SWIDTH 216 0
DWIDTH 5 0
BBX 4 6 4 13
BITMAP
30
70
30
20
40
80
ENDCHAR
STARTCHAR parenleft
ENCODING 40
SWIDTH 350 0
DWIDTH 9 0
BBX 9 21 3 -3
BITMAP
0180
0600
0c00
1800
1800
3000
3000
6000
6000
6000
4000
c000
c000
c000
c000
c000
4000
4000
6000
2000
1000
ENDCHAR
STARTCHAR parenright
ENCODING 41
SWIDTH 350 0
DWIDTH 9 0
BBX 9 21 0 -3
BITMAP
0400
0600
0300
0100
0100
0180
0180
0180
0180
0180
0100
0300
0300
0300
0600
0600
0c00
0c00
1800
3000
c000
ENDCHAR
STARTCHAR asterisk
ENCODING 42
SWIDTH 412 0
DWIDTH 10 0
BBX 9 9 3 9
BITMAP
0400
0c00
6980
3f00
1800
6e00
cb00
1800
1000
ENDCHAR
STARTCHAR plus
ENCODING 43
SWIDTH 570 0
DWIDTH 14 0
BBX 12 13 2 0
BITMAP
0600
0600
0600
0600
0600
0600
fff0
0600
0600
0600
0600
0600
0600
ENDCHAR
STARTCHAR comma
ENCODING 44
SWIDTH 265 0
DWIDTH 7 0
BBX 4 7 1 -3
BITMAP
20
70
30
30
20
40
80
ENDCHAR
STARTCHAR minus
ENCODING 45
SWIDTH 570 0
DWIDTH 14 0
BBX 12 1 2 6
BITMAP
fff0
ENDCHAR
STARTCHAR period
ENCODING 46
SWIDTH 265 0
DWIDTH 7 0
BBX 3 3 2 0
BITMAP
e0
e0
e0
ENDCHAR
STARTCHAR slash
ENCODING 47
SWIDTH 270 0
DWIDTH 7 0
BBX 9 18 1 0
BITMAP
0180
0300
0300
0300
0600
0600
0400
0c00
0c00
1800
1800
1000
3000
3000
6000
6000
6000
c000
ENDCHAR
STARTCHAR zero
ENCODING 48
SWIDTH 530 0
DWIDTH 13 0
BBX 12 17 2 0
BITMAP
07c0
0c60
1820
3830
7030
6030
6030
6030
e070
c060
c060
c060
c0e0
c0c0
4180
6300
3e00
ENDCHAR
STARTCHAR one
ENCODING 49
SWIDTH 530 0
DWIDTH 13 0
BBX 9 17 3 0
BITMAP
0180
1f80
0300
0300
0300
0300
0700
0600
0600
0600
0e00
0c00
0c00
0c00
1c00
1c00
ff00
ENDCHAR
STARTCHAR two
ENCODING 50
SWIDTH 530 0
DWIDTH 13 0
BBX 13 17 1 0
BITMAP
03e0
0e30
1c18
1818
1818
0018
0030
0070
00c0
0180
0700
0c00
1800
3000
6030
ffe0
ffe0
ENDCHAR
STARTCHAR three
ENCODING 51
SWIDTH 530 0
DWIDTH 13 0
BBX 12 17 2 0
BITMAP
0380
0c60
1830
1830
0030
0060
00e0
0f00
00c0
0060
0060
0060
0060
c060
e0c0
7180
1f00
ENDCHAR
STARTCHAR four
ENCODING 52
SWIDTH 530 0
DWIDTH 13 0
BBX 11 17 2 0
BITMAP
0060
00e0
01e0
03c0
02c0
04c0
08c0
18c0
3180
6180
4180
ffe0
0100
0300
0300
0300
1fc0
ENDCHAR
STARTCHAR five
ENCODING 53
SWIDTH 530 0
DWIDTH 13 0
BBX 13 17 1 0
BITMAP
0ff8
0ff8
0800
0800
1800
1000
17c0
1860
3070
0030
0030
0030
4030
c060
e060
71c0
1f00
ENDCHAR
STARTCHAR six
ENCODING 54
SWIDTH 530 0
DWIDTH 13 0
BBX 13 17 2 0
BITMAP
03e0
0c30
1818
3018
3000
6000
6000
6f80
50c0
e060
c060
c060
c060
c0c0
40c0
6180
1e00
ENDCHAR
STARTCHAR seven
ENCODING 55
SWIDTH 530 0
DWIDTH 13 0
BBX 12 17 4 0
BITMAP
7ff0
7ff0
c060
0040
00c0
0180
0300
0600
0400
0800
1800
3000
3000
7000
6000
e000
6000
ENDCHAR
STARTCHAR eight
ENCODING 56
SWIDTH 530 0
DWIDTH 13 0
BBX 12 17 2 0
BITMAP
03c0
0c60
1c30
1830
1830
1860
0c40
0f80
30c0
6040
c060
c060
c060
c060
e0c0
7180
1f00
ENDCHAR
STARTCHAR nine
ENCODING 57
SWIDTH 530 0
DWIDTH 13 0
BBX 12 17 2 0
BITMAP
0780
1860
3060
2030
6030
6030
6030
7070
30f0
1f70
0060
0060
00e0
c0c0
c1c0
6380
3e00
ENDCHAR
STARTCHAR colon
ENCODING 58
SWIDTH 265 0
DWIDTH 7 0
BBX 5 13 2 0
BITMAP
10
38
38
00
00
00
00
00
00
00
e0
e0
40
ENDCHAR
STARTCHAR semicolon
ENCODING 59
SWIDTH 265 0
DWIDTH 7 0
BBX 6 15 1 -2
BITMAP
08
1c
1c
00
00
00
00
00
00
70
30
30
20
60
c0
ENDCHAR
STARTCHAR less
ENCODING 60
SWIDTH 570 0
DWIDTH 14 0
BBX 12 13 2 0
BITMAP
0020
00e0
03e0
0f00
3c00
f000
8000
e000
3800
0f00
03c0
00e0
0010
ENDCHAR
STARTCHAR equal
ENCODING 61
SWIDTH 570 0
DWIDTH 14 0
BBX 12 6 2 3
BITMAP
fff0
0000
0000
0000
0000
fff0
ENDCHAR
STARTCHAR greater
ENCODING 62
SWIDTH 570 0
DWIDTH 14 0
BBX 12 13 2 0
BITMAP
4000
7000
7c00
0f00
03c0
00f0
0010
0070
01c0
0f00
3c00
7000
8000
ENDCHAR
STARTCHAR question
ENCODING 63
SWIDTH 425 0
DWIDTH 11 0
BBX 8 18 4 0
BITMAP
3c
62
e3
c3
07
06
0e
18
30
60
c0
c0
78
00
00
60
e0
60
ENDCHAR
STARTCHAR at
ENCODING 64
SWIDTH 794 0
DWIDTH 20 0
BBX 18 18 3 0
BITMAP
01f800
070600
1c0100
380080
300c80
607c40
60c840
418840
c31840
c31840
c61080
c67080
c6b300
631c00
600000
300000
1c0c00
07f000
ENDCHAR
STARTCHAR A
ENCODING 65
SWIDTH 624 0
DWIDTH 16 0
BBX 17 18 -1 0
BITMAP
001800
001800
003800
003c00
005c00
00cc00
008c00
018c00
010c00
020c00
03fc00
040e00
040e00
080e00
180600
100600
300600
fc1f80
ENDCHAR
STARTCHAR B
ENCODING 66
SWIDTH 632 0
DWIDTH 16 0
BBX 15 18 1 0
BITMAP
0ff8
070c
0706
0706
0606
0604
060c
0618
0fe0
0c38
0c0c
0c0e
0c0e
180e
180c
181c
1838
ffe0
ENDCHAR
STARTCHAR C
ENCODING 67
SWIDTH 661 0
DWIDTH 17 0
BBX 16 18 3 0
BITMAP
01f8
0707
0c03
1802
3802
7000
7000
6000
e000
e000
e000
e000
e000
6004
7008
3018
1838
07e0
ENDCHAR
STARTCHAR D
ENCODING 68
SWIDTH 763 0
DWIDTH 19 0
BBX 19 18 1 0
BITMAP
1ffc00
070700
070180
0601c0
0600c0
0600e0
0e00e0
0e00e0
0c00e0
0c00e0
0c00c0
1c01c0
180180
180380
180700
380e00
383c00
ffe000
ENDCHAR
STARTCHAR E
ENCODING 69
SWIDTH 596 0
DWIDTH 15 0
BBX 17 18 1 0
BITMAP
0fff80
030380
030100
030100
070100
060000
060000
060400
060c00
0ff800
0c0800
0c0800
0c0000
0c0200
180400
180400
380c00
fff800
ENDCHAR
STARTCHAR F
ENCODING 70
SWIDTH 571 0
DWIDTH 14 0
BBX 17 18 1 0
BITMAP
0fff80
030380
030100
030100
070100
060000
060000
060400
060c00
0ffc00
0c0800
0c0800
0c0000
0c0000
180000
180000
380000
ff0000
ENDCHAR
STARTCHAR G
ENCODING 71
SWIDTH 709 0
DWIDTH 18 0
BBX 16 18 3 0
BITMAP
01fc
0707
0c03
1802
3802
3000
7000
6000
e000
e000
e03f
e00e
e00c
600c
701c
3018
1c18
07e0
ENDCHAR
STARTCHAR H
ENCODING 72
SWIDTH 775 0
DWIDTH 19 0
BBX 21 18 1 0
BITMAP
0fc3f8
0300e0
0300c0
0700c0
0600c0
0601c0
060180
0e0180
0e0180
0fff80
0c0380
0c0300
1c0300
1c0300
180700
180700
380600
fe1f80
ENDCHAR
STARTCHAR I
ENCODING 73
SWIDTH 345 0
DWIDTH 9 0
BBX 11 18 1 0
BITMAP
0fe0
0380
0300
0300
0700
0600
0600
0600
0e00
0e00
0c00
0c00
1c00
1c00
1800
1800
3800
fe00
ENDCHAR
STARTCHAR J
ENCODING 74
SWIDTH 352 0
DWIDTH 9 0
BBX 13 21 -1 -3
BITMAP
03f8
00e0
00c0
00c0
01c0
01c0
0180
0180
0380
0380
0300
0300
0300
0700
0700
0600
0e00
0c00
1c00
3800
e000
ENDCHAR
STARTCHAR K
ENCODING 75
SWIDTH 650 0
DWIDTH 16 0
BBX 19 18 1 0
BITMAP
0fc7e0
030300
020600
020c00
061000
066000
06c000
058000
0f8000
0f8000
0dc000
0cc000
1ce000
1c7000
187000
183800
381c00
fe0700
ENDCHAR
STARTCHAR L
ENCODING 76
SWIDTH 565 0
DWIDTH 14 0
BBX 14 18 1 0
BITMAP
0fe0
0300
0300
0700
0600
0600
0600
0e00
0e00
0c00
0c00
0c00
1c00
1804
1804
1808
3818
fff8
ENDCHAR
STARTCHAR M
ENCODING 77
SWIDTH 920 0
DWIDTH 23 0
BBX 26 18 0 0
BITMAP
0f800fc0
03800e00
03c01e00
03c01e00
02c02c00
04c06c00
04c04c00
04e08c00
04e19c00
0c611800
08621800
08621800
08743800
187c3000
18383000
10303000
30307000
fc21fc00
ENDCHAR
STARTCHAR N
ENCODING 78
SWIDTH 763 0
DWIDTH 19 0
BBX 22 18 0 0
BITMAP
0f80fc
038030
03c020
02c060
04e060
04e040
047040
047040
0430c0
083880
081880
081c80
080c80
180f80
180f00
100700
300700
fc0300
ENDCHAR
STARTCHAR O
ENCODING 79
SWIDTH 753 0
DWIDTH 19 0
BBX 17 18 3 0
BITMAP
01f800
070c00
0c0600
1c0300
380300
300380
700380
700380
e00380
e00380
e00700
e00700
e00700
600e00
600c00
301800
183000
07c000
ENDCHAR
STARTCHAR P
ENCODING 80
SWIDTH 614 0
DWIDTH 15 0
BBX 16 18 1 0
BITMAP
0ff0
030c
0306
0307
0607
0607
0606
060e
060c
0e38
0fe0
0c00
0c00
1c00
1800
1800
3800
fe00
ENDCHAR
STARTCHAR Q
ENCODING 81
SWIDTH 753 0
DWIDTH 19 0
BBX 17 23 3 -5
BITMAP
01f800
070c00
0c0600
1c0300
380300
300380
700380
700380
e00380
e00380
e00700
e00700
e00700
600e00
600c00
301800
183000
07c000
038000
01c000
00e000
007000
001e00
ENDCHAR
STARTCHAR R
ENCODING 82
SWIDTH 640 0
DWIDTH 16 0
BBX 16 18 1 0
BITMAP
0ff8
030e
0306
0707
0607
0607
0606
0e0e
0e18
0ff0
0c38
0c18
1c18
1c18
1818
1818
381c
fe0e
ENDCHAR
STARTCHAR S
ENCODING 83
SWIDTH 533 0
DWIDTH 13 0
BBX 13 18 1 0
BITMAP
03e0
0618
0818
1818
1810
1800
1e00
0f00
07c0
01e0
00e0
0070
4030
4030
4030
e060
70c0
1f00
ENDCHAR
STARTCHAR T
ENCODING 84
SWIDTH 606 0
DWIDTH 15 0
BBX 15 18 4 0
BITMAP
fffe
c30e
8304
8304
0700
0700
0600
0600
0600
0e00
0c00
0c00
0c00
1c00
1c00
1800
1800
ff00
ENDCHAR
STARTCHAR U
ENCODING 85
SWIDTH 794 0
DWIDTH 20 0
BBX 18 18 4 0
BITMAP
fe1fc0
380700
300700
300600
700600
600e00
600e00
600c00
600c00
600c00
c01c00
c01800
c01800
c03800
c03000
607000
70e000
1f8000
ENDCHAR
STARTCHAR V
ENCODING 86
SWIDTH 637 0
DWIDTH 16 0
BBX 17 18 3 0
BITMAP
fc1f80
300600
300400
300c00
300800
381800
381000
182000
186000
184000
18c000
188000
198000
1d0000
1e0000
0e0000
0c0000
0c0000
ENDCHAR
STARTCHAR W
ENCODING 87
SWIDTH 946 0
DWIDTH 24 0
BBX 25 18 3 0
BITMAP
fc001f80
30180600
301c0400
303c0c00
302c0800
302c1800
304c1000
304c1000
308c2000
308c2000
110e4000
190e4000
1a068000
1a068000
1c070000
1c070000
1c070000
18060000
ENDCHAR
STARTCHAR X
ENCODING 88
SWIDTH 632 0
DWIDTH 16 0
BBX 19 18 0 0
BITMAP
0fc7e0
070180
038300
018600
018c00
01c800
00d000
00e000
006000
00e000
01f000
013000
023800
061800
0c1c00
181c00
300e00
fc3f80
ENDCHAR
STARTCHAR Y
ENCODING 89
SWIDTH 591 0
DWIDTH 15 0
BBX 16 18 3 0
BITMAP
fc3f
380c
1818
1810
1830
1c60
0c40
0c80
0d80
0700
0600
0600
0600
0c00
0c00
0c00
0c00
7f00
ENDCHAR
STARTCHAR Z
ENCODING 90
SWIDTH 622 0
DWIDTH 16 0
BBX 18 18 0 0
BITMAP
07ffc0
0603c0
040780
080f00
001e00
001c00
003800
007000
00e000
01e000
03c000
078000
0f0000
0e0100
1c0200
380200
700e00
fffc00
ENDCHAR
STARTCHAR bracketleft
ENCODING 91
SWIDTH 330 0
DWIDTH 8 0
BBX 9 21 2 -3
BITMAP
0780
0400
0c00
0c00
0800
0800
1800
1800
1800
1000
3000
3000
3000
2000
2000
6000
6000
4000
4000
c000
f000
ENDCHAR
STARTCHAR backslash
ENCODING 92
SWIDTH 390 0
DWIDTH 10 0
BBX 7 18 3 0
BITMAP
c0
c0
40
60
60
20
30
30
30
18
18
18
08
0c
0c
04
06
06
ENDCHAR
STARTCHAR bracketright
ENCODING 93
SWIDTH 330 0
DWIDTH 8 0
BBX 9 21 0 -3
BITMAP
0780
0180
0100
0100
0300
0300
0200
0200
0600
0600
0600
0400
0c00
0c00
0c00
0800
0800
1800
1800
1000
f000
ENDCHAR
STARTCHAR asciicircum
ENCODING 94
SWIDTH 570 0
DWIDTH 14 0
BBX 12 11 3 6
BITMAP
0600
0f00
0f00
0980
1980
1080
30c0
30c0
6060
6060
c030
ENDCHAR
STARTCHAR underscore
ENCODING 95
SWIDTH 500 0
DWIDTH 12 0
BBX 12 1 0 -3
BITMAP
fff0
ENDCHAR
STARTCHAR grave
ENCODING 96
SWIDTH 400 0
DWIDTH 10 0
BBX 6 5 4 13
BITMAP
40
e0
70
18
04
ENDCHAR
STARTCHAR a
ENCODING 97
SWIDTH 561 0
DWIDTH 14 0
BBX 13 13 2 0
BITMAP
03d8
0e30
1c30
3830
3070
6060
6060
c0e0
c160
c148
c2c8
ccd0
70e0
ENDCHAR
STARTCHAR b
ENCODING 98
SWIDTH 559 0
DWIDTH 14 0
BBX 12 19 3 0
BITMAP
0c00
3c00
1c00
1800
1800
1800
18e0
3330
3430
3830
3830
7030
7060
7060
6060
60c0
e180
b300
9e00
ENDCHAR
STARTCHAR c
ENCODING 99
SWIDTH 441 0
DWIDTH 11 0
BBX 10 13 2 0
BITMAP
0780
18c0
30c0
2080
6000
4000
c000
c000
c000
c080
c100
6200
3c00
ENDCHAR
STARTCHAR d
ENCODING 100
SWIDTH 587 0
DWIDTH 15 0
BBX 14 19 2 0
BITMAP
000c
007c
0018
0018
0018
0018
03f8
0e30
1830
3030
3070
6060
60e0
c0e0
c160
c1c8
c2c8
ccd0
70e0
ENDCHAR
STARTCHAR e
ENCODING 101
SWIDTH 453 0
DWIDTH 11 0
BBX 10 13 2 0
BITMAP
0700
18c0
30c0
60c0
6180
4380
ce00
f000
c000
c080
c100
6200
3c00
ENDCHAR
STARTCHAR f
ENCODING 102
SWIDTH 315 0
DWIDTH 8 0
BBX 15 25 -2 -6
BITMAP
003c
006e
00c6
00c0
01c0
0180
07f0
0180
0380
0300
0300
0300
0300
0300
0600
0600
0600
0600
0600
0c00
0c00
0c00
4800
c800
7000
ENDCHAR
STARTCHAR g
ENCODING 103
SWIDTH 499 0
DWIDTH 12 0
BBX 14 19 1 -6
BITMAP
078c
0c7c
1830
3830
3030
3030
3060
18e0
0f80
1000
3800
3f00
17c0
60e0
c060
c060
c060
70c0
1f00
ENDCHAR
STARTCHAR h
ENCODING 104
SWIDTH 607 0
DWIDTH 15 0
BBX 12 19 3 0
BITMAP
0c00
3c00
0c00
1c00
1800
1800
18e0
3930
3230
3430
3860
3860
7060
70c0
60c0
60d0
e190
c1a0
c1c0
ENDCHAR
STARTCHAR i
ENCODING 105
SWIDTH 317 0
DWIDTH 8 0
BBX 6 18 3 0
BITMAP
0c
1c
1c
00
00
18
f0
30
30
30
60
60
60
60
48
c8
d0
e0
ENDCHAR
STARTCHAR j
ENCODING 106
SWIDTH 309 0
DWIDTH 8 0
BBX 11 24 -2 -6
BITMAP
00c0
00e0
00c0
0000
0000
00c0
07c0
01c0
0180
0180
0180
0180
0300
0300
0300
0300
0700
0600
0600
0600
0400
4c00
ec00
7000
ENDCHAR
STARTCHAR k
ENCODING 107
SWIDTH 545 0
DWIDTH 14 0
BBX 13 19 2 0
BITMAP
0600
3e00
0c00
0c00
0c00
1c00
1838
18f8
1980
3a00
3400
3600
3e00
7600
6700
6710
6310
e3a0
c1c0
ENDCHAR
STARTCHAR l
ENCODING 108
SWIDTH 306 0
DWIDTH 8 0
BBX 6 19 3 0
BITMAP
0c
7c
1c
18
18
18
38
30
30
30
30
60
60
60
60
c8
c8
d0
e0
ENDCHAR
STARTCHAR m
ENCODING 109
SWIDTH 912 0
DWIDTH 23 0
BBX 20 13 3 0
BITMAP
18f1c0
793260
1a3460
343860
382840
3870c0
3070c0
7060c0
6060c0
60e190
60c190
e0c1a0
c1c1c0
ENDCHAR
STARTCHAR n
ENCODING 110
SWIDTH 618 0
DWIDTH 15 0
BBX 12 13 3 0
BITMAP
18e0
f930
1a30
3430
3860
3860
3060
70c0
60c0
60d0
e190
c1a0
c1c0
ENDCHAR
STARTCHAR o
ENCODING 111
SWIDTH 537 0
DWIDTH 13 0
BBX 12 13 2 0
BITMAP
07c0
1c60
3830
7030
6030
6030
c070
c060
c060
c0e0
c1c0
6380
3c00
ENDCHAR
STARTCHAR p
ENCODING 112
SWIDTH 590 0
DWIDTH 15 0
BBX 14 19 1 -6
BITMAP
0e38
3ccc
0d0c
0d0c
0e0c
1c0c
1c18
1818
1818
1830
3060
38e0
3780
3000
7000
6000
6000
6000
c000
ENDCHAR
STARTCHAR q
ENCODING 113
SWIDTH 559 0
DWIDTH 14 0
BBX 13 20 2 -6
BITMAP
0008
03d0
0c30
1830
3070
3060
6060
60e0
c0e0
c1e0
c2c0
c2c0
ccc0
71c0
0180
0180
0180
0380
0300
0200
ENDCHAR
STARTCHAR r
ENCODING 114
SWIDTH 402 0
DWIDTH 10 0
BBX 9 13 3 0
BITMAP
3980
f380
3500
3800
3000
7000
7000
6000
6000
e000
e000
c000
c000
ENDCHAR
STARTCHAR s
ENCODING 115
SWIDTH 389 0
DWIDTH 10 0
BBX 9 13 1 0
BITMAP
0f00
1180
3180
3000
3800
1c00
0e00
0600
0700
4300
c300
e200
3c00
ENDCHAR
STARTCHAR t
ENCODING 116
SWIDTH 341 0
DWIDTH 9 0
BBX 8 16 3 0
BITMAP
08
18
38
ff
30
30
30
60
60
60
60
60
c4
c8
d0
e0
ENDCHAR
STARTCHAR u
ENCODING 117
SWIDTH 618 0
DWIDTH 15 0
BBX 13 13 3 0
BITMAP
1818
f830
3030
3030
7070
6060
6060
60e0
6160
c148
c2c8
ccd0
f0e0
ENDCHAR
STARTCHAR v
ENCODING 118
SWIDTH 510 0
DWIDTH 13 0
BBX 11 13 3 0
BITMAP
3040
f060
3060
6060
6040
6040
6080
6080
c100
c200
c400
c800
7000
ENDCHAR
STARTCHAR w
ENCODING 119
SWIDTH 785 0
DWIDTH 20 0
BBX 18 13 3 0
BITMAP
303080
f030c0
3060c0
7060c0
606080
606080
60e080
60c100
c1c100
c1c200
c2c400
ccc800
707000
ENDCHAR
STARTCHAR x
ENCODING 120
SWIDTH 516 0
DWIDTH 13 0
BBX 13 13 1 0
BITMAP
0c18
3e78
0640
0680
0700
0300
0300
0700
0700
0b90
1990
f1a0
c0c0
ENDCHAR
STARTCHAR y
ENCODING 121
SWIDTH 468 0
DWIDTH 12 0
BBX 13 19 0 -6
BITMAP
0c08
3c18
0c18
0c10
0c10
0c20
0e20
0640
0640
0680
0780
0700
0700
0600
0400
0400
0800
d800
e000
ENDCHAR
STARTCHAR z
ENCODING 122
SWIDTH 468 0
DWIDTH 12 0
BBX 12 13 1 0
BITMAP
0ff0
1ff0
1060
20c0
0180
0300
0600
0c00
1810
3020
7c20
cfe0
c1c0
ENDCHAR
STARTCHAR braceleft
ENCODING 123
SWIDTH 340 0
DWIDTH 8 0
BBX 8 21 3 -3
BITMAP
03
0c
08
18
18
18
18
18
18
30
e0
20
30
30
60
60
60
c0
c0
c0
30
ENDCHAR
STARTCHAR bar
ENCODING 124
SWIDTH 270 0
DWIDTH 7 0
BBX 2 18 4 0
BITMAP
c0
c0
c0
c0
c0
c0
c0
c0
c0
c0
c0
c0
c0
c0
c0
c0
c0
c0
ENDCHAR
STARTCHAR braceright
ENCODING 125
SWIDTH 340 0
DWIDTH 8 0
BBX 9 21 0 -3
BITMAP
0600
0180
0180
0180
0300
0300
0300
0600
0600
0600
0380
0400
0800
1800
1800
1800
1800
1800
1000
3000
c000
ENDCHAR
STARTCHAR asciitilde
ENCODING 126
SWIDTH 570 0
DWIDTH 14 0
BBX 11 4 3 4
BITMAP
1060
7ec0
4fc0
c000
ENDCHAR
STARTCHAR nobreakspace
ENCODING 160
SWIDTH 225 0
DWIDTH 6 0
BBX 0 0 0 0
BITMAP
ENDCHAR
STARTCHAR Aogonek
ENCODING 161
SWIDTH 624 0
DWIDTH 16 0
BBX 17 24 -1 -6
BITMAP
001800
001800
003800
003c00
005c00
00cc00
008c00
018c00
010c00
020c00
03fc00
040e00
040e00
080e00
180600
100600
300600
fc1f80
004000
008000
010000
030000
030000
01e000
ENDCHAR
STARTCHAR breve
ENCODING 162
SWIDTH 400 0
DWIDTH 10 0
BBX 7 4 6 14
BITMAP
82
84
fc
78
ENDCHAR
STARTCHAR Lstroke
ENCODING 163
SWIDTH 571 0
DWIDTH 14 0
BBX 14 18 1 0
BITMAP
0fe0
0300
0300
0700
0600
0620
06c0
0f80
0e00
0c00
3c00
4c00
1c00
1800
1804
1808
3818
fff8
ENDCHAR
STARTCHAR currency
ENCODING 164
SWIDTH 530 0
DWIDTH 13 0
BBX 11 11 3 3
BITMAP
ce60
71c0
60c0
c060
c060
c060
c060
c060
60c0
71c0
ce60
ENDCHAR
STARTCHAR Lcaron
ENCODING 165
SWIDTH 640 0
DWIDTH 16 0
BBX 16 20 1 0
BITMAP
0003
0007
0fe3
0302
0304
0708
0600
0600
0600
0e00
0e00
0c00
0c00
0c00
1c00
1804
1804
1808
3818
fff8
ENDCHAR
STARTCHAR Sacute
ENCODING 166
SWIDTH 533 0
DWIDTH 13 0
BBX 14 24 1 0
BITMAP
0008
001c
0038
0060
0080
0000
03e0
0618
0818
1818
1810
1800
1e00
0f00
07c0
01e0
00e0
0070
4030
4030
4030
e060
70c0
1f00
ENDCHAR
STARTCHAR section
ENCODING 167
SWIDTH 530 0
DWIDTH 13 0
BBX 11 21 2 -3
BITMAP
01c0
0620
0c20
0c00
1c00
2700
2780
41c0
40c0
4060
6020
3820
3c20
0e20
0720
03c0
0180
4180
c100
6300
3c00
ENDCHAR
STARTCHAR diaeresis
ENCODING 168
SWIDTH 400 0
DWIDTH 10 0
BBX 8 3 5 14
BITMAP
43
e7
c2
ENDCHAR
STARTCHAR Scaron
ENCODING 169
SWIDTH 533 0
DWIDTH 13 0
BBX 13 23 1 0
BITMAP
0208
0130
01e0
00c0
0000
03e0
0618
0818
1818
1810
1800
1e00
0f00
07c0
01e0
00e0
0070
4030
4030
4030
e060
70c0
1f00
ENDCHAR
STARTCHAR Scedilla
ENCODING 170
SWIDTH 533 0
DWIDTH 13 0
BBX 13 24 1 -6
BITMAP
03e0
0618
0818
1818
1810
1800
1e00
0f00
07c0
01e0
00e0
0070
4030
4030
4030
e060
70c0
1f00
0100
0200
0380
0180
0180
0700
ENDCHAR
STARTCHAR Tcaron
ENCODING 171
SWIDTH 606 0
DWIDTH 15 0
BBX 15 23 4 0
BITMAP
0410
0260
03c0
0180
0000
fffe
c30e
8304
8304
0700
0700
0600
0600
0600
0e00
0c00
0c00
0c00
1c00
1c00
1800
1800
ff00
ENDCHAR
STARTCHAR Zacute
ENCODING 172
SWIDTH 622 0
DWIDTH 16 0
BBX 18 24 0 0
BITMAP
000100
000380
000700
000c00
001000
000000
07ffc0
0603c0
040780
080f00
001e00
001c00
003800
007000
00e000
01e000
03c000
078000
0f0000
0e0100
1c0200
380200
700e00
fffc00
ENDCHAR
STARTCHAR hyphen
ENCODING 173
SWIDTH 392 0
DWIDTH 10 0
BBX 6 2 3 5
BITMAP
fc
fc
ENDCHAR
STARTCHAR Zcaron
ENCODING 174
SWIDTH 622 0
DWIDTH 16 0
BBX 18 23 0 0
BITMAP
004100
002600
003c00
001800
000000
07ffc0
0603c0
040780
080f00
001e00
001c00
003800
007000
00e000
01e000
03c000
078000
0f0000
0e0100
1c0200
380200
700e00
fffc00
ENDCHAR
STARTCHAR Zabovedot
ENCODING 175
SWIDTH 622 0
DWIDTH 16 0
BBX 18 22 0 0
BITMAP
000c00
001c00
001800
000000
07ffc0
0603c0
040780
080f00
001e00
001c00
003800
007000
00e000
01e000
03c000
078000
0f0000
0e0100
1c0200
380200
700e00
fffc00
ENDCHAR
STARTCHAR degree
ENCODING 176
SWIDTH 400 0
DWIDTH 10 0
BBX 6 7 5 10
BITMAP
78
48
84
84
84
48
78
ENDCHAR
STARTCHAR aogonek
ENCODING 177
SWIDTH 561 0
DWIDTH 14 0
BBX 13 19 2 -6
BITMAP
03d8
0e30
1c30
3830
3070
6060
6060
c0e0
c160
c148
c2c8
ccd0
70e0
0100
0200
0400
0c00
0c00
0780
ENDCHAR
STARTCHAR ogonek
ENCODING 178
SWIDTH 350 0
DWIDTH 9 0
BBX 5 6 2 -5
BITMAP
10
20
40
c0
c0
78
ENDCHAR
STARTCHAR lstroke
ENCODING 179
SWIDTH 318 0
DWIDTH 8 0
BBX 8 19 2 0
BITMAP
06
3e
0e
0c
0c
0c
1d
1b
1c
38
78
b0
30
30
30
64
64
68
70
ENDCHAR
STARTCHAR acute
ENCODING 180
SWIDTH 400 0
DWIDTH 10 0
BBX 6 5 6 13
BITMAP
08
1c
38
60
80
ENDCHAR
STARTCHAR lcaron
ENCODING 181
SWIDTH 520 0
DWIDTH 13 0
BBX 11 21 3 0
BITMAP
0060
00e0
0c60
7c40
1c80
1900
1800
1800
3800
3000
3000
3000
3000
6000
6000
6000
6000
c800
c800
d000
e000
ENDCHAR
STARTCHAR sacute
ENCODING 182
SWIDTH 389 0
DWIDTH 10 0
BBX 11 19 1 0
BITMAP
0040
00e0
01c0
0300
0400
0000
0f00
1180
3180
3000
3800
1c00
0e00
0600
0700
4300
c300
e200
3c00
ENDCHAR
STARTCHAR caron
ENCODING 183
SWIDTH 400 0
DWIDTH 10 0
BBX 7 4 6 14
BITMAP
82
4c
78
30
ENDCHAR
STARTCHAR cedilla
ENCODING 184
SWIDTH 400 0
DWIDTH 10 0
BBX 4 6 3 -6
BITMAP
20
40
70
30
30
e0
ENDCHAR
STARTCHAR scaron
ENCODING 185
SWIDTH 389 0
DWIDTH 10 0
BBX 10 18 1 0
BITMAP
1040
0980
0f00
0600
0000
0f00
1180
3180
3000
3800
1c00
0e00
0600
0700
4300
c300
e200
3c00
ENDCHAR
STARTCHAR scedilla
ENCODING 186
SWIDTH 389 0
DWIDTH 10 0
BBX 9 19 1 -6
BITMAP
0f00
1180
3180
3000
3800
1c00
0e00
0600
0700
4300
c300
e200
3c00
0400
0800
0e00
0600
0600
1c00
ENDCHAR
STARTCHAR tcaron
ENCODING 187
SWIDTH 440 0
DWIDTH 11 0
BBX 10 20 3 0
BITMAP
00c0
01c0
00c0
0080
0900
1a00
3800
ff00
3000
3000
3000
6000
6000
6000
6000
6000
c400
c800
d000
e000
ENDCHAR
STARTCHAR zacute
ENCODING 188
SWIDTH 468 0
DWIDTH 12 0
BBX 13 19 1 0
BITMAP
0010
0038
0070
00c0
0100
0000
0ff0
1ff0
1060
20c0
0180
0300
0600
0c00
1810
3020
7c20
cfe0
c1c0
ENDCHAR
STARTCHAR doubleacute
ENCODING 189
SWIDTH 400 0
DWIDTH 10 0
BBX 7 5 5 14
BITMAP
26
66
6c
c8
88
ENDCHAR
STARTCHAR zcaron
ENCODING 190
SWIDTH 468 0
DWIDTH 12 0
BBX 12 18 1 0
BITMAP
0410
0260
03c0
0180
0000
0ff0
1ff0
1060
20c0
0180
0300
0600
0c00
1810
3020
7c20
cfe0
c1c0
ENDCHAR
STARTCHAR zabovedot
ENCODING 191
SWIDTH 468 0
DWIDTH 12 0
BBX 12 17 1 0
BITMAP
00c0
01c0
0180
0000
0ff0
1ff0
1060
20c0
0180
0300
0600
0c00
1810
3020
7c20
cfe0
c1c0
ENDCHAR
STARTCHAR Racute
ENCODING 192
SWIDTH 640 0
DWIDTH 16 0
BBX 16 24 1 0
BITMAP
0004
000e
001c
0030
0040
0000
0ff8
030e
0306
0707
0607
0607
0606
0e0e
0e18
0ff0
0c38
0c18
1c18
1c18
1818
1818
381c
fe0e
ENDCHAR
STARTCHAR Aacute
ENCODING 193
SWIDTH 624 0
DWIDTH 16 0
BBX 17 23 -1 0
BITMAP
000100
000380
000f00
001800
000000
001800
001800
003800
003c00
005c00
00cc00
008c00
018c00
010c00
020c00
03fc00
040e00
040e00
080600
180600
100600
300600
fc1f80
ENDCHAR
STARTCHAR Acircumflex
ENCODING 194
SWIDTH 624 0
DWIDTH 16 0
BBX 17 22 -1 0
BITMAP
000c00
001e00
003300
004100
001800
001800
003800
003c00
005c00
00cc00
008c00
018c00
010c00
020c00
03fc00
040e00
040e00
080600
180600
100600
300600
fc1f80
ENDCHAR
STARTCHAR Abreve
ENCODING 195
SWIDTH 624 0
DWIDTH 16 0
BBX 17 23 -1 0
BITMAP
004100
004200
007e00
003c00
000000
001800
001800
003800
003c00
005c00
00cc00
008c00
018c00
010c00
020c00
03fc00
040e00
040e00
080e00
180600
100600
300600
fc1f80
ENDCHAR
STARTCHAR Adiaeresis
ENCODING 196
SWIDTH 624 0
DWIDTH 16 0
BBX 17 21 -1 0
BITMAP
003180
007380
006300
000c00
001c00
001c00
002c00
002c00
004c00
00cc00
008e00
010e00
010600
03fe00
060600
040600
0c0600
180600
100600
300700
fc1f80
ENDCHAR
STARTCHAR Lacute
ENCODING 197
SWIDTH 565 0
DWIDTH 14 0
BBX 14 24 1 0
BITMAP
0010
0038
0070
00c0
0100
0000
0fe0
0300
0300
0700
0600
0600
0600
0e00
0e00
0c00
0c00
0c00
1c00
1804
1804
1808
3818
fff8
ENDCHAR
STARTCHAR Cacute
ENCODING 198
SWIDTH 661 0
DWIDTH 17 0
BBX 16 24 3 0
BITMAP
0002
0007
000e
0018
0020
0000
01f8
0707
0c03
1802
3802
7000
7000
6000
e000
e000
e000
e000
e000
6004
7008
3018
1838
07e0
ENDCHAR
STARTCHAR Ccedilla
ENCODING 199
SWIDTH 661 0
DWIDTH 17 0
BBX 16 24 3 -6
BITMAP
01f8
0707
0c03
1802
3802
7000
7000
6000
e000
e000
e000
e000
e000
6004
7008
3018
1838
07e0
0200
0200
0700
0300
0180
0e00
ENDCHAR
STARTCHAR Ccaron
ENCODING 200
SWIDTH 661 0
DWIDTH 17 0
BBX 16 23 3 0
BITMAP
0082
004c
0078
0030
0000
01f8
0707
0c03
1802
3802
7000
7000
6000
e000
e000
e000
e000
e000
6004
7008
3018
1838
07e0
ENDCHAR
STARTCHAR Eacute
ENCODING 201
SWIDTH 596 0
DWIDTH 15 0
BBX 17 23 1 0
BITMAP
000200
000e00
003c00
006000
000000
0fff80
030380
030100
030100
070100
060000
060000
060400
060c00
0ff800
0c0800
0c0800
0c0000
0c0200
180400
180400
380c00
fff800
ENDCHAR
STARTCHAR Eogonek
ENCODING 202
SWIDTH 596 0
DWIDTH 15 0
BBX 17 24 1 -6
BITMAP
0fff80
030380
030100
030100
070100
060000
060000
060400
060c00
0ff800
0c0800
0c0800
0c0000
0c0200
180400
180400
380c00
fff800
004000
008000
010000
030000
030000
01e000
ENDCHAR
STARTCHAR Ediaeresis
ENCODING 203
SWIDTH 596 0
DWIDTH 15 0
BBX 17 21 1 0
BITMAP
018600
038e00
030c00
0fff80
030380
030100
030100
070100
060000
060000
060400
060c00
0ff800
0c0800
0c0800
0c0000
0c0200
180400
180400
380c00
fff800
ENDCHAR
STARTCHAR Ecaron
ENCODING 204
SWIDTH 596 0
DWIDTH 15 0
BBX 17 23 1 0
BITMAP
008200
004c00
007800
003000
000000
0fff80
030380
030100
030100
070100
060000
060000
060400
060c00
0ff800
0c0800
0c0800
0c0000
0c0200
180400
180400
380c00
fff800
ENDCHAR
STARTCHAR Iacute
ENCODING 205
SWIDTH 345 0
DWIDTH 9 0
BBX 11 23 1 0
BITMAP
0020
00e0
01c0
0600
0000
0fc0
0300
0700
0700
0600
0600
0600
0e00
0c00
0c00
0c00
1c00
1c00
1800
1800
1800
3800
fe00
ENDCHAR
STARTCHAR Icircumflex
ENCODING 206
SWIDTH 345 0
DWIDTH 9 0
BBX 11 22 1 0
BITMAP
0180
03c0
0c40
0820
0fc0
0700
0700
0700
0600
0600
0600
0e00
0c00
0c00
0c00
1c00
1c00
1800
1800
1800
3800
fe00
ENDCHAR
STARTCHAR Dcaron
ENCODING 207
SWIDTH 763 0
DWIDTH 19 0
BBX 19 23 1 0
BITMAP
008200
004c00
007800
003000
000000
1ffc00
070700
070180
0601c0
0600c0
0600e0
0e00e0
0e00e0
0c00e0
0c00e0
0c00c0
1c01c0
180180
180380
180700
380e00
383c00
ffe000
ENDCHAR
STARTCHAR Dstroke
ENCODING 208
SWIDTH 770 0
DWIDTH 19 0
BBX 19 18 1 0
BITMAP
1ffc00
070700
070380
0601c0
0600c0
0600c0
0600e0
0e00e0
0e00e0
7fc0e0
0c00e0
1c01c0
1c01c0
180380
180300
380e00
383c00
ffe000
ENDCHAR
STARTCHAR Nacute
ENCODING 209
SWIDTH 763 0
DWIDTH 19 0
BBX 22 24 0 0
BITMAP
000040
0000e0
0001c0
000300
000400
000000
0f80fc
038030
03c020
02c060
04e060
04e040
047040
047040
0430c0
083880
081880
081c80
080c80
180f80
180f00
100700
300700
fc0300
ENDCHAR
STARTCHAR Ncaron
ENCODING 210
SWIDTH 763 0
DWIDTH 19 0
BBX 22 23 0 0
BITMAP
001040
000980
000f00
000600
000000
0f80fc
038030
03c020
02c060
04e060
04e040
047040
047040
0430c0
083880
081880
081c80
080c80
180f80
180f00
100700
300700
fc0300
ENDCHAR
STARTCHAR Oacute
ENCODING 211
SWIDTH 753 0
DWIDTH 19 0
BBX 17 23 3 0
BITMAP
000400
001c00
003800
00c000
000000
01f800
070c00
0c0600
1c0300
380300
300380
700380
700380
e00380
e00380
e00700
e00700
e00700
600e00
600c00
301800
183000
07c000
ENDCHAR
STARTCHAR Ocircumflex
ENCODING 212
SWIDTH 753 0
DWIDTH 19 0
BBX 17 22 3 0
BITMAP
003000
007800
018800
030400
01f800
070c00
0c0600
1c0300
380300
300380
700380
700380
e00380
e00380
e00700
e00700
e00700
600e00
600c00
301800
183000
07c000
ENDCHAR
STARTCHAR Odoubleacute
ENCODING 213
SWIDTH 753 0
DWIDTH 19 0
BBX 17 24 3 0
BITMAP
004c00
00cc00
00d800
019000
011000
000000
01f800
070c00
0c0600
1c0300
380300
300380
700380
700380
e00380
e00380
e00700
e00700
e00700
600e00
600c00
301800
183000
07c000
ENDCHAR
STARTCHAR Odiaeresis
ENCODING 214
SWIDTH 753 0
DWIDTH 19 0
BBX 17 21 3 0
BITMAP
018600
038e00
030c00
03f000
060c00
1c0600
180300
300300
300380
700380
600380
e00380
e00380
e00700
e00700
e00700
600e00
601c00
301800
187000
0fc000
ENDCHAR
STARTCHAR multiply
ENCODING 215
SWIDTH 570 0
DWIDTH 14 0
BBX 11 11 3 1
BITMAP
4040
e0e0
71c0
3b80
1f00
0e00
1f00
3b80
71c0
e0e0
4040
ENDCHAR
STARTCHAR Rcaron
ENCODING 216
SWIDTH 640 0
DWIDTH 16 0
BBX 16 23 1 0
BITMAP
0104
0098
00f0
0060
0000
0ff8
030e
0306
0707
0607
0607
0606
0e0e
0e18
0ff0
0c38
0c18
1c18
1c18
1818
1818
381c
fe0e
ENDCHAR
STARTCHAR Uring
ENCODING 217
SWIDTH 794 0
DWIDTH 20 0
BBX 18 24 4 0
BITMAP
00e000
019000
011000
013000
00e000
000000
fe1fc0
380700
300700
300600
700600
600e00
600e00
600c00
600c00
600c00
c01c00
c01800
c01800
c03800
c03000
607000
70e000
1f8000
ENDCHAR
STARTCHAR Uacute
ENCODING 218
SWIDTH 794 0
DWIDTH 20 0
BBX 18 23 4 0
BITMAP
000400
001c00
003800
00c000
000000
fe1fc0
380700
300700
300600
700600
600e00
600e00
600c00
600c00
600c00
c01c00
c01800
c01800
c03800
c03000
607000
70e000
1f8000
ENDCHAR
STARTCHAR Udoubleacute
ENCODING 219
SWIDTH 794 0
DWIDTH 20 0
BBX 18 24 4 0
BITMAP
004c00
00cc00
00d800
019000
011000
000000
fe1fc0
380700
300700
300600
700600
600e00
600e00
600c00
600c00
600c00
c01c00
c01800
c01800
c03800
c03000
607000
70e000
1f8000
ENDCHAR
STARTCHAR Udiaeresis
ENCODING 220
SWIDTH 794 0
DWIDTH 20 0
BBX 19 21 4 0
BITMAP
018c00
039c00
031800
fe0fe0
380300
380300
300700
700600
700600
600600
600e00
600e00
600c00
c00c00
c01c00
c01800
c01800
c03800
603000
706000
1f8000
ENDCHAR
STARTCHAR Yacute
ENCODING 221
SWIDTH 591 0
DWIDTH 15 0
BBX 16 23 3 0
BITMAP
0004
001c
0038
00c0
0000
fc3f
380c
1818
1810
1830
1c60
0c40
0c80
0d80
0700
0600
0600
0600
0c00
0c00
0c00
0c00
7f00
ENDCHAR
STARTCHAR Tcedilla
ENCODING 222
SWIDTH 606 0
DWIDTH 15 0
BBX 15 24 4 -6
BITMAP
fffe
c30e
8304
8304
0700
0700
0600
0600
0600
0e00
0c00
0c00
0c00
1c00
1c00
1800
1800
ff00
0080
0100
01c0
00c0
00c0
0380
ENDCHAR
STARTCHAR ssharp
ENCODING 223
SWIDTH 577 0
DWIDTH 14 0
BBX 19 25 -2 -6
BITMAP
000f80
0010c0
002060
004060
00c060
00c0c0
0787c0
038c00
039800
031800
031c00
031e00
030f00
070700
060380
060180
062180
067300
0c3e00
0c0000
0c0000
080000
880000
d80000
f00000
ENDCHAR
STARTCHAR racute
ENCODING 224
SWIDTH 402 0
DWIDTH 10 0
BBX 10 19 3 0
BITMAP
0080
01c0
0380
0600
0800
0000
3980
f380
3500
3800
3000
7000
7000
6000
6000
e000
e000
c000
c000
ENDCHAR
STARTCHAR aacute
ENCODING 225
SWIDTH 561 0
DWIDTH 14 0
BBX 13 19 2 0
BITMAP
0008
0038
0070
0040
0080
0000
03d8
0e30
1c30
3830
3070
6060
6060
c0e0
c160
c148
c2c8
ccd0
70e0
ENDCHAR
STARTCHAR acircumflex
ENCODING 226
SWIDTH 561 0
DWIDTH 14 0
BBX 13 18 2 0
BITMAP
0040
00e0
0130
0208
0000
03d8
0e30
1c30
3830
3070
6060
6060
c0e0
c160
c148
c2c8
ccd0
70e0
ENDCHAR
STARTCHAR abreve
ENCODING 227
SWIDTH 561 0
DWIDTH 14 0
BBX 13 18 2 0
BITMAP
0208
0210
03f0
01e0
0000
03d8
0e30
1c30
3830
3070
6060
6060
c0e0
c160
c148
c2c8
ccd0
70e0
ENDCHAR
STARTCHAR adiaeresis
ENCODING 228
SWIDTH 561 0
DWIDTH 14 0
BBX 13 17 2 0
BITMAP
0618
0e38
0c30
0000
03d8
0e30
1c30
3830
3070
6060
6060
c0e0
c160
c148
c2c8
ccd0
70e0
ENDCHAR
STARTCHAR lacute
ENCODING 229
SWIDTH 306 0
DWIDTH 8 0
BBX 9 25 3 0
BITMAP
0100
0380
0700
0c00
1000
0000
0c00
7c00
1c00
1800
1800
1800
3800
3000
3000
3000
3000
6000
6000
6000
6000
c800
c800
d000
e000
ENDCHAR
STARTCHAR cacute
ENCODING 230
SWIDTH 441 0
DWIDTH 11 0
BBX 12 19 2 0
BITMAP
0020
0070
00e0
0180
0200
0000
0780
18c0
30c0
2080
6000
4000
c000
c000
c000
c080
c100
6200
3c00
ENDCHAR
STARTCHAR ccedilla
ENCODING 231
SWIDTH 441 0
DWIDTH 11 0
BBX 10 19 2 -6
BITMAP
0780
18c0
30c0
2080
6000
4000
c000
c000
c000
c080
c100
6200
3c00
1000
3000
3800
1800
1800
7000
ENDCHAR
STARTCHAR ccaron
ENCODING 232
SWIDTH 441 0
DWIDTH 11 0
BBX 11 18 2 0
BITMAP
0820
04c0
0780
0300
0000
0780
18c0
30c0
2080
6000
4000
c000
c000
c000
c080
c100
6200
3c00
ENDCHAR
STARTCHAR eacute
ENCODING 233
SWIDTH 453 0
DWIDTH 11 0
BBX 10 18 2 0
BITMAP
00c0
01c0
0300
0400
0000
0700
18c0
30c0
60c0
6180
4380
ce00
f000
c000
c080
c100
6200
3c00
ENDCHAR
STARTCHAR eogonek
ENCODING 234
SWIDTH 453 0
DWIDTH 11 0
BBX 10 19 2 -6
BITMAP
0700
18c0
30c0
60c0
6180
4380
ce00
f000
c000
c080
c100
6200
3c00
0400
0800
1000
3000
3000
1e00
ENDCHAR
STARTCHAR ediaeresis
ENCODING 235
SWIDTH 453 0
DWIDTH 11 0
BBX 11 17 2 0
BITMAP
0c60
1ce0
18c0
0000
0700
08c0
30c0
70c0
6180
6380
ce00
f000
c000
c080
c100
6300
3c00
ENDCHAR
STARTCHAR ecaron
ENCODING 236
SWIDTH 453 0
DWIDTH 11 0
BBX 11 18 2 0
BITMAP
0820
04c0
0780
0300
0000
0700
18c0
30c0
60c0
6180
4380
ce00
f000
c000
c080
c100
6200
3c00
ENDCHAR
STARTCHAR iacute
ENCODING 237
SWIDTH 317 0
DWIDTH 8 0
BBX 7 18 3 0
BITMAP
06
0e
18
20
00
18
f0
30
30
30
60
60
60
60
48
c8
d0
e0
ENDCHAR
STARTCHAR icircumflex
ENCODING 238
SWIDTH 317 0
DWIDTH 8 0
BBX 7 18 3 0
BITMAP
18
3c
64
82
00
18
f0
30
30
30
60
60
60
60
48
c8
d0
e0
ENDCHAR
STARTCHAR dcaron
ENCODING 239
SWIDTH 800 0
DWIDTH 20 0
BBX 19 21 2 0
BITMAP
000060
0000e0
000c60
007c40
001880
001900
001800
001800
03f800
0e3000
183000
303000
307000
606000
60e000
c0e000
c16000
c1c800
c2c800
ccd000
70e000
ENDCHAR
STARTCHAR dstroke
ENCODING 240
SWIDTH 680 0
DWIDTH 17 0
BBX 16 19 2 0
BITMAP
000c
007c
0018
00ff
00ff
0018
03f8
0e30
1830
3030
3070
6060
60e0
c0e0
c160
c1c8
c2c8
ccd0
70e0
ENDCHAR
STARTCHAR nacute
ENCODING 241
SWIDTH 618 0
DWIDTH 15 0
BBX 12 19 3 0
BITMAP
0020
0070
00e0
0180
0200
0000
18e0
f930
1a30
3430
3860
3860
3060
70c0
60c0
60d0
e190
c1a0
c1c0
ENDCHAR
STARTCHAR ncaron
ENCODING 242
SWIDTH 618 0
DWIDTH 15 0
BBX 12 18 3 0
BITMAP
0820
04c0
0780
0300
0000
18e0
f930
1a30
3430
3860
3860
3060
70c0
60c0
60d0
e190
c1a0
c1c0
ENDCHAR
STARTCHAR oacute
ENCODING 243
SWIDTH 537 0
DWIDTH 13 0
BBX 12 18 2 0
BITMAP
0070
00e0
0180
0200
0000
07c0
1c60
3830
7030
6030
6030
c070
c060
c060
c0e0
c1c0
6380
3c00
ENDCHAR
STARTCHAR ocircumflex
ENCODING 244
SWIDTH 537 0
DWIDTH 13 0
BBX 12 18 2 0
BITMAP
00c0
03c0
0660
0830
0000
07c0
1c60
3830
7030
6030
6030
c070
c060
c060
c0e0
c1c0
6380
3c00
ENDCHAR
STARTCHAR odoubleacute
ENCODING 245
SWIDTH 537 0
DWIDTH 13 0
BBX 12 19 2 0
BITMAP
0130
0330
0360
0640
0440
0000
07c0
1c60
3830
7030
6030
6030
c070
c060
c060
c0e0
c1c0
6380
3c00
ENDCHAR
STARTCHAR odiaeresis
ENCODING 246
SWIDTH 537 0
DWIDTH 13 0
BBX 12 17 2 0
BITMAP
0630
0e70
0c60
0000
07c0
1c60
3830
7030
6030
6030
c070
c060
c060
c0e0
c1c0
6380
3c00
ENDCHAR
STARTCHAR division
ENCODING 247
SWIDTH 570 0
DWIDTH 14 0
BBX 12 11 3 1
BITMAP
0e00
0e00
0e00
0000
0000
fff0
0000
0000
0e00
0e00
0e00
ENDCHAR
STARTCHAR rcaron
ENCODING 248
SWIDTH 402 0
DWIDTH 10 0
BBX 9 18 3 0
BITMAP
2080
1300
1e00
0c00
0000
3980
f380
3500
3800
3000
7000
7000
6000
6000
e000
e000
c000
c000
ENDCHAR
STARTCHAR uring
ENCODING 249
SWIDTH 618 0
DWIDTH 15 0
BBX 13 19 3 0
BITMAP
0700
0c80
0880
0980
0700
0000
1818
f830
3030
3030
7070
6060
6060
60e0
6160
c148
c2c8
ccd0
f0e0
ENDCHAR
STARTCHAR uacute
ENCODING 250
SWIDTH 618 0
DWIDTH 15 0
BBX 13 18 3 0
BITMAP
0070
00e0
00c0
0100
0000
1818
f830
3030
3030
7070
6060
6060
60e0
6160
c148
c2c8
ccd0
f0e0
ENDCHAR
STARTCHAR udoubleacute
ENCODING 251
SWIDTH 618 0
DWIDTH 15 0
BBX 13 19 3 0
BITMAP
0260
0660
06c0
0c80
0880
0000
1818
f830
3030
3030
7070
6060
6060
60e0
6160
c148
c2c8
ccd0
f0e0
ENDCHAR
STARTCHAR udiaeresis
ENCODING 252
SWIDTH 618 0
DWIDTH 15 0
BBX 13 17 3 0
BITMAP
0630
0e70
0c60
0000
1818
f830
3030
3030
7060
6060
6060
60e0
6160
c148
c2c8
ccd0
f0e0
ENDCHAR
STARTCHAR yacute
ENCODING 253
SWIDTH 468 0
DWIDTH 12 0
BBX 13 24 0 -6
BITMAP
0018
0030
00e0
0180
0000
0c08
3c18
0c18
0c10
0c10
0c20
0e20
0640
0640
0680
0780
0700
0700
0600
0400
0400
0800
d800
e000
ENDCHAR
STARTCHAR tcedilla
ENCODING 254
SWIDTH 341 0
DWIDTH 9 0
BBX 8 22 3 -6
BITMAP
08
18
38
ff
30
30
30
60
60
60
60
60
c4
c8
d0
e0
08
10
1c
0c
0c
38
ENDCHAR
STARTCHAR abovedot
ENCODING 255
SWIDTH 402 0
DWIDTH 10 0
BBX 3 3 7 14
BITMAP
60
e0
c0
ENDCHAR
ENDFONT
